<?xml version="1.0" encoding="UTF-8"?>
<svg xmlns="http://www.w3.org/2000/svg" xmlns:xlink="http://www.w3.org/1999/xlink" width="150pt" height="150pt" viewBox="0 0 150 150" version="1.1">
<defs>
<linearGradient id="linear0" gradientUnits="userSpaceOnUse" x1="0" y1="0" x2="1" y2="0" gradientTransform="matrix(15.548843,7.336389,-7.250545,15.732937,20.054688,66.320313)">
<stop offset="0" style="stop-color:rgb(0%,3.921569%,40.784314%);stop-opacity:1;"/>
<stop offset="1" style="stop-color:rgb(0%,76.862745%,93.333333%);stop-opacity:1;"/>
</linearGradient>
</defs>
<g id="surface1">
<rect x="0" y="0" width="150" height="150" style="fill:rgb(100%,100%,100%);fill-opacity:1;stroke:none;"/>
<path style=" stroke:none;fill-rule:nonzero;fill:rgb(0%,0%,0%);fill-opacity:1;" d="M 47.898438 80.785156 L 47.15625 80.785156 C 47 80.785156 46.921875 80.707031 46.921875 80.550781 L 46.921875 76.824219 L 43.792969 70.449219 C 43.761719 70.371094 43.761719 70.308594 43.792969 70.261719 C 43.824219 70.222656 43.875 70.203125 43.945312 70.203125 L 44.863281 70.203125 C 44.988281 70.203125 45.085938 70.277344 45.148438 70.425781 L 47.5 75.421875 L 47.582031 75.421875 L 49.921875 70.425781 C 49.96875 70.277344 50.054688 70.203125 50.179688 70.203125 L 51.121094 70.203125 C 51.308594 70.203125 51.359375 70.285156 51.273438 70.449219 L 48.121094 76.824219 L 48.121094 80.550781 C 48.121094 80.707031 48.046875 80.785156 47.898438 80.785156 Z M 55.917969 80.785156 L 55.058594 80.785156 C 54.300781 80.785156 53.703125 80.570312 53.273438 80.140625 C 52.839844 79.714844 52.625 79.121094 52.625 78.351562 L 52.625 74.824219 C 52.625 74.054688 52.839844 73.460938 53.273438 73.035156 C 53.703125 72.605469 54.300781 72.390625 55.058594 72.390625 L 58.632812 72.390625 C 58.785156 72.390625 58.859375 72.46875 58.859375 72.625 L 58.859375 80.550781 C 58.859375 80.707031 58.785156 80.785156 58.632812 80.785156 L 57.894531 80.785156 C 57.738281 80.785156 57.660156 80.707031 57.660156 80.550781 L 57.660156 79.914062 L 57.589844 79.914062 C 57.3125 80.496094 56.757812 80.785156 55.917969 80.785156 Z M 57.660156 78.222656 L 57.660156 73.589844 C 57.660156 73.496094 57.605469 73.449219 57.492188 73.449219 L 55.1875 73.449219 C 54.28125 73.449219 53.824219 73.921875 53.824219 74.871094 L 53.824219 78.304688 C 53.824219 79.253906 54.28125 79.726562 55.1875 79.726562 L 56.128906 79.726562 C 56.625 79.726562 57 79.597656 57.257812 79.339844 C 57.527344 79.074219 57.660156 78.699219 57.660156 78.222656 Z M 62.105469 80.785156 L 61.363281 80.785156 C 61.207031 80.785156 61.128906 80.707031 61.128906 80.550781 L 61.128906 72.625 C 61.128906 72.46875 61.207031 72.390625 61.363281 72.390625 L 62.105469 72.390625 C 62.261719 72.390625 62.339844 72.46875 62.339844 72.625 L 62.339844 73.257812 L 62.398438 73.257812 C 62.671875 72.679688 63.234375 72.390625 64.078125 72.390625 L 64.996094 72.390625 C 65.75 72.390625 66.332031 72.605469 66.75 73.035156 C 67.164062 73.460938 67.371094 74.054688 67.371094 74.824219 L 67.371094 80.550781 C 67.371094 80.707031 67.292969 80.785156 67.136719 80.785156 L 66.394531 80.785156 C 66.246094 80.785156 66.171875 80.707031 66.171875 80.550781 L 66.171875 74.871094 C 66.171875 73.921875 65.710938 73.449219 64.785156 73.449219 L 63.867188 73.449219 C 63.375 73.449219 62.992188 73.578125 62.726562 73.835938 C 62.46875 74.101562 62.339844 74.476562 62.339844 74.953125 L 62.339844 80.550781 C 62.339844 80.707031 62.261719 80.785156 62.105469 80.785156 Z M 70.535156 80.785156 L 69.792969 80.785156 C 69.636719 80.785156 69.558594 80.707031 69.558594 80.550781 L 69.558594 72.625 C 69.558594 72.46875 69.636719 72.390625 69.792969 72.390625 L 70.535156 72.390625 C 70.683594 72.390625 70.757812 72.46875 70.757812 72.625 L 70.757812 73.257812 L 70.828125 73.257812 C 71.105469 72.679688 71.664062 72.390625 72.511719 72.390625 L 73.429688 72.390625 C 74.171875 72.390625 74.757812 72.605469 75.179688 73.035156 C 75.597656 73.460938 75.804688 74.054688 75.804688 74.824219 L 75.804688 80.550781 C 75.804688 80.707031 75.726562 80.785156 75.566406 80.785156 L 74.828125 80.785156 C 74.679688 80.785156 74.605469 80.707031 74.605469 80.550781 L 74.605469 74.871094 C 74.605469 73.921875 74.140625 73.449219 73.214844 73.449219 L 72.300781 73.449219 C 71.804688 73.449219 71.425781 73.578125 71.160156 73.835938 C 70.890625 74.101562 70.757812 74.476562 70.757812 74.953125 L 70.757812 80.550781 C 70.757812 80.707031 70.683594 80.785156 70.535156 80.785156 Z M 78.074219 71 L 78.074219 69.460938 C 78.074219 69.304688 78.144531 69.226562 78.285156 69.226562 L 79.050781 69.226562 C 79.199219 69.226562 79.273438 69.304688 79.273438 69.460938 L 79.273438 71 C 79.273438 71.160156 79.199219 71.238281 79.050781 71.238281 L 78.285156 71.238281 C 78.144531 71.238281 78.074219 71.160156 78.074219 71 Z M 78.074219 80.550781 L 78.074219 72.625 C 78.074219 72.46875 78.144531 72.390625 78.285156 72.390625 L 79.050781 72.390625 C 79.199219 72.390625 79.273438 72.46875 79.273438 72.625 L 79.273438 80.550781 C 79.273438 80.707031 79.199219 80.785156 79.050781 80.785156 L 78.308594 80.785156 C 78.152344 80.785156 78.074219 80.707031 78.074219 80.550781 Z M 86.515625 79.960938 L 86.515625 80.574219 C 86.515625 80.714844 86.441406 80.785156 86.292969 80.785156 L 83.90625 80.785156 C 83.144531 80.785156 82.550781 80.570312 82.117188 80.140625 C 81.679688 79.714844 81.460938 79.121094 81.460938 78.351562 L 81.460938 74.824219 C 81.460938 74.054688 81.679688 73.460938 82.117188 73.035156 C 82.550781 72.605469 83.144531 72.390625 83.90625 72.390625 L 86.292969 72.390625 C 86.441406 72.390625 86.515625 72.46875 86.515625 72.625 L 86.515625 73.222656 C 86.515625 73.375 86.441406 73.449219 86.292969 73.449219 L 84.035156 73.449219 C 83.125 73.449219 82.671875 73.921875 82.671875 74.871094 L 82.671875 78.304688 C 82.671875 79.253906 83.125 79.726562 84.035156 79.726562 L 86.292969 79.726562 C 86.441406 79.726562 86.515625 79.804688 86.515625 79.960938 Z M 92.960938 72.390625 L 93.785156 72.390625 C 93.871094 72.390625 93.925781 72.414062 93.949219 72.460938 C 93.980469 72.515625 93.96875 72.578125 93.914062 72.648438 L 91.492188 76.410156 L 91.492188 76.46875 L 94.160156 80.527344 C 94.199219 80.597656 94.203125 80.660156 94.171875 80.714844 C 94.140625 80.761719 94.082031 80.785156 93.996094 80.785156 L 93.21875 80.785156 C 93.007812 80.785156 92.855469 80.707031 92.761719 80.550781 L 90.21875 76.632812 C 90.15625 76.523438 90.15625 76.410156 90.21875 76.292969 L 92.5625 72.601562 C 92.625 72.460938 92.757812 72.390625 92.960938 72.390625 Z M 89.175781 80.785156 L 88.433594 80.785156 C 88.277344 80.785156 88.199219 80.707031 88.199219 80.550781 L 88.199219 69.4375 C 88.199219 69.289062 88.277344 69.214844 88.433594 69.214844 L 89.175781 69.214844 C 89.324219 69.214844 89.398438 69.289062 89.398438 69.4375 L 89.398438 80.550781 C 89.398438 80.707031 89.324219 80.785156 89.175781 80.785156 Z M 100.804688 80.785156 L 100.0625 80.785156 C 99.914062 80.785156 99.839844 80.707031 99.839844 80.550781 L 99.839844 70.425781 C 99.839844 70.277344 99.914062 70.203125 100.0625 70.203125 L 100.804688 70.203125 C 100.960938 70.203125 101.039062 70.277344 101.039062 70.425781 L 101.039062 74.765625 C 101.039062 74.859375 101.09375 74.90625 101.203125 74.90625 L 105.285156 74.90625 C 105.394531 74.90625 105.449219 74.859375 105.449219 74.765625 L 105.449219 70.425781 C 105.449219 70.277344 105.527344 70.203125 105.683594 70.203125 L 106.425781 70.203125 C 106.574219 70.203125 106.648438 70.277344 106.648438 70.425781 L 106.648438 80.550781 C 106.648438 80.707031 106.574219 80.785156 106.425781 80.785156 L 105.683594 80.785156 C 105.527344 80.785156 105.449219 80.707031 105.449219 80.550781 L 105.449219 76.105469 C 105.449219 76.011719 105.394531 75.964844 105.285156 75.964844 L 101.203125 75.964844 C 101.09375 75.964844 101.039062 76.011719 101.039062 76.105469 L 101.039062 80.550781 C 101.039062 80.707031 100.960938 80.785156 100.804688 80.785156 Z M 112.222656 80.785156 L 111.363281 80.785156 C 110.601562 80.785156 110.007812 80.570312 109.578125 80.140625 C 109.144531 79.714844 108.929688 79.121094 108.929688 78.351562 L 108.929688 74.824219 C 108.929688 74.054688 109.144531 73.460938 109.578125 73.035156 C 110.007812 72.605469 110.601562 72.390625 111.363281 72.390625 L 114.9375 72.390625 C 115.085938 72.390625 115.164062 72.46875 115.164062 72.625 L 115.164062 80.550781 C 115.164062 80.707031 115.085938 80.785156 114.9375 80.785156 L 114.199219 80.785156 C 114.042969 80.785156 113.960938 80.707031 113.960938 80.550781 L 113.960938 79.914062 L 113.890625 79.914062 C 113.617188 80.496094 113.0625 80.785156 112.222656 80.785156 Z M 113.960938 78.222656 L 113.960938 73.589844 C 113.960938 73.496094 113.90625 73.449219 113.796875 73.449219 L 111.492188 73.449219 C 110.582031 73.449219 110.128906 73.921875 110.128906 74.871094 L 110.128906 78.304688 C 110.128906 79.253906 110.582031 79.726562 111.492188 79.726562 L 112.433594 79.726562 C 112.929688 79.726562 113.304688 79.597656 113.5625 79.339844 C 113.828125 79.074219 113.960938 78.699219 113.960938 78.222656 Z M 122.324219 79.960938 L 122.324219 80.574219 C 122.324219 80.714844 122.25 80.785156 122.101562 80.785156 L 119.714844 80.785156 C 118.953125 80.785156 118.355469 80.570312 117.925781 80.140625 C 117.488281 79.714844 117.265625 79.121094 117.265625 78.351562 L 117.265625 74.824219 C 117.265625 74.054688 117.488281 73.460938 117.925781 73.035156 C 118.355469 72.605469 118.953125 72.390625 119.714844 72.390625 L 122.101562 72.390625 C 122.25 72.390625 122.324219 72.46875 122.324219 72.625 L 122.324219 73.222656 C 122.324219 73.375 122.25 73.449219 122.101562 73.449219 L 119.84375 73.449219 C 118.933594 73.449219 118.476562 73.921875 118.476562 74.871094 L 118.476562 78.304688 C 118.476562 79.253906 118.933594 79.726562 119.84375 79.726562 L 122.101562 79.726562 C 122.25 79.726562 122.324219 79.804688 122.324219 79.960938 Z M 128.769531 72.390625 L 129.589844 72.390625 C 129.675781 72.390625 129.730469 72.414062 129.753906 72.460938 C 129.785156 72.515625 129.773438 72.578125 129.71875 72.648438 L 127.296875 76.410156 L 127.296875 76.46875 L 129.96875 80.527344 C 130.007812 80.597656 130.011719 80.660156 129.980469 80.714844 C 129.949219 80.761719 129.890625 80.785156 129.800781 80.785156 L 129.027344 80.785156 C 128.816406 80.785156 128.660156 80.707031 128.566406 80.550781 L 126.027344 76.632812 C 125.964844 76.523438 125.964844 76.410156 126.027344 76.292969 L 128.367188 72.601562 C 128.429688 72.460938 128.5625 72.390625 128.769531 72.390625 Z M 124.980469 80.785156 L 124.242188 80.785156 C 124.082031 80.785156 124.003906 80.707031 124.003906 80.550781 L 124.003906 69.4375 C 124.003906 69.289062 124.082031 69.214844 124.242188 69.214844 L 124.980469 69.214844 C 125.128906 69.214844 125.203125 69.289062 125.203125 69.4375 L 125.203125 80.550781 C 125.203125 80.707031 125.128906 80.785156 124.980469 80.785156 Z M 124.980469 80.785156 "/>
<path style=" stroke:none;fill-rule:nonzero;fill:url(#linear0);" d="M 36.011719 83.679688 L 21.273438 83.667969 C 20.367188 83.667969 19.820312 82.953125 20.054688 82.082031 L 20.390625 80.847656 C 20.625 79.96875 21.5625 79.257812 22.464844 79.257812 L 34.761719 79.257812 C 35.667969 79.257812 36.609375 79.96875 36.855469 80.839844 L 37.210938 82.097656 C 37.457031 82.96875 36.917969 83.679688 36.011719 83.679688 Z M 36.199219 66.320312 L 21.074219 66.320312 C 20.882812 66.320312 20.699219 66.398438 20.566406 66.53125 C 20.429688 66.664062 20.355469 66.847656 20.355469 67.039062 L 20.355469 77.574219 C 20.355469 77.765625 20.429688 77.945312 20.566406 78.082031 C 20.699219 78.214844 20.882812 78.289062 21.074219 78.289062 L 36.199219 78.289062 C 36.390625 78.289062 36.570312 78.214844 36.707031 78.082031 C 36.839844 77.945312 36.917969 77.765625 36.917969 77.574219 L 36.917969 67.039062 C 36.917969 66.847656 36.839844 66.664062 36.707031 66.53125 C 36.570312 66.398438 36.390625 66.320312 36.199219 66.320312 Z M 35.484375 76.859375 L 21.789062 76.859375 L 21.789062 67.753906 L 35.484375 67.753906 Z M 35.484375 76.859375 "/>
</g>
</svg>
