<svg data-v-fde0c5aa="" xmlns="http://www.w3.org/2000/svg" viewBox="0 0 300 300" class="iconLeft"><!----><defs data-v-fde0c5aa=""><!----></defs><rect data-v-fde0c5aa="" fill="transparent" x="0" y="0" width="300px" height="300px" class="logo-background-square"></rect><defs data-v-fde0c5aa=""><!----></defs><g data-v-fde0c5aa="" id="8b5ce6ef-2029-4807-9fe4-bb30a0d5be6f" fill="#000000" transform="matrix(2.351882096532204,0,0,2.351882096532204,86.83615638130284,130.94975468164972)"><path d="M3.81 13.02L3.81 13.02L3.18 13.02L3.18 13.02Q2.98 13.02 2.98 12.82L2.98 12.82L2.98 9.65L0.32 4.23L0.32 4.23Q0.28 4.13 0.32 4.07L0.32 4.07L0.32 4.07Q0.36 4.02 0.45 4.02L0.45 4.02L1.23 4.02L1.23 4.02Q1.39 4.02 1.47 4.21L1.47 4.21L3.47 8.46L3.54 8.46L5.53 4.21L5.53 4.21Q5.59 4.02 5.75 4.02L5.75 4.02L6.55 4.02L6.55 4.02Q6.79 4.02 6.68 4.23L6.68 4.23L4.00 9.65L4.00 12.82L4.00 12.82Q4.00 13.02 3.81 13.02ZM10.63 13.02L10.63 13.02L9.90 13.02L9.90 13.02Q8.93 13.02 8.38 12.47L8.38 12.47L8.38 12.47Q7.83 11.93 7.83 10.95L7.83 10.95L7.83 7.95L7.83 7.95Q7.83 6.97 8.38 6.43L8.38 6.43L8.38 6.43Q8.93 5.88 9.90 5.88L9.90 5.88L12.94 5.88L12.94 5.88Q13.13 5.88 13.13 6.08L13.13 6.08L13.13 12.82L13.13 12.82Q13.13 13.02 12.94 13.02L12.94 13.02L12.31 13.02L12.31 13.02Q12.11 13.02 12.11 12.82L12.11 12.82L12.11 12.28L12.05 12.28L12.05 12.28Q11.70 13.02 10.63 13.02ZM12.11 10.84L12.11 10.84L12.11 6.90L12.11 6.90Q12.11 6.78 11.97 6.78L11.97 6.78L10.01 6.78L10.01 6.78Q8.85 6.78 8.85 7.99L8.85 7.99L8.85 10.91L8.85 10.91Q8.85 12.12 10.01 12.12L10.01 12.12L10.81 12.12L10.81 12.12Q11.44 12.12 11.77 11.79L11.77 11.79L11.77 11.79Q12.11 11.45 12.11 10.84ZM15.89 13.02L15.89 13.02L15.26 13.02L15.26 13.02Q15.06 13.02 15.06 12.82L15.06 12.82L15.06 6.08L15.06 6.08Q15.06 5.88 15.26 5.88L15.26 5.88L15.89 5.88L15.89 5.88Q16.09 5.88 16.09 6.08L16.09 6.08L16.09 6.62L16.14 6.62L16.14 6.62Q16.49 5.88 17.57 5.88L17.57 5.88L18.35 5.88L18.35 5.88Q19.31 5.88 19.84 6.43L19.84 6.43L19.84 6.43Q20.37 6.97 20.37 7.95L20.37 7.95L20.37 12.82L20.37 12.82Q20.37 13.02 20.17 13.02L20.17 13.02L19.54 13.02L19.54 13.02Q19.35 13.02 19.35 12.82L19.35 12.82L19.35 7.99L19.35 7.99Q19.35 6.78 18.17 6.78L18.17 6.78L17.39 6.78L17.39 6.78Q16.76 6.78 16.42 7.11L16.42 7.11L16.42 7.11Q16.09 7.45 16.09 8.06L16.09 8.06L16.09 12.82L16.09 12.82Q16.09 13.02 15.89 13.02ZM23.06 13.02L23.06 13.02L22.43 13.02L22.43 13.02Q22.23 13.02 22.23 12.82L22.23 12.82L22.23 6.08L22.23 6.08Q22.23 5.88 22.43 5.88L22.43 5.88L23.06 5.88L23.06 5.88Q23.25 5.88 23.25 6.08L23.25 6.08L23.25 6.62L23.31 6.62L23.31 6.62Q23.66 5.88 24.74 5.88L24.74 5.88L25.52 5.88L25.52 5.88Q26.47 5.88 27.01 6.43L27.01 6.43L27.01 6.43Q27.54 6.97 27.54 7.95L27.54 7.95L27.54 12.82L27.54 12.82Q27.54 13.02 27.34 13.02L27.34 13.02L26.71 13.02L26.71 13.02Q26.52 13.02 26.52 12.82L26.52 12.82L26.52 7.99L26.52 7.99Q26.52 6.78 25.34 6.78L25.34 6.78L24.56 6.78L24.56 6.78Q23.93 6.78 23.59 7.11L23.59 7.11L23.59 7.11Q23.25 7.45 23.25 8.06L23.25 8.06L23.25 12.82L23.25 12.82Q23.25 13.02 23.06 13.02ZM29.47 4.70L29.47 4.70L29.47 3.39L29.47 3.39Q29.47 3.19 29.65 3.19L29.65 3.19L30.30 3.19L30.30 3.19Q30.49 3.19 30.49 3.39L30.49 3.39L30.49 4.70L30.49 4.70Q30.49 4.90 30.30 4.90L30.30 4.90L29.65 4.90L29.65 4.90Q29.47 4.90 29.47 4.70ZM29.47 12.82L29.47 12.82L29.47 6.08L29.47 6.08Q29.47 5.88 29.65 5.88L29.65 5.88L30.30 5.88L30.30 5.88Q30.49 5.88 30.49 6.08L30.49 6.08L30.49 12.82L30.49 12.82Q30.49 13.02 30.30 13.02L30.30 13.02L29.67 13.02L29.67 13.02Q29.47 13.02 29.47 12.82ZM36.65 12.32L36.65 12.32L36.65 12.84L36.65 12.84Q36.65 13.02 36.46 13.02L36.46 13.02L34.43 13.02L34.43 13.02Q33.46 13.02 32.91 12.47L32.91 12.47L32.91 12.47Q32.35 11.93 32.35 10.95L32.35 10.95L32.35 7.95L32.35 7.95Q32.35 6.97 32.91 6.43L32.91 6.43L32.91 6.43Q33.46 5.88 34.43 5.88L34.43 5.88L36.46 5.88L36.46 5.88Q36.65 5.88 36.65 6.08L36.65 6.08L36.65 6.59L36.65 6.59Q36.65 6.78 36.46 6.78L36.46 6.78L34.54 6.78L34.54 6.78Q33.38 6.78 33.38 7.99L33.38 7.99L33.38 10.91L33.38 10.91Q33.38 12.12 34.54 12.12L34.54 12.12L36.46 12.12L36.46 12.12Q36.65 12.12 36.65 12.32ZM42.13 5.88L42.13 5.88L42.83 5.88L42.83 5.88Q42.94 5.88 42.97 5.94L42.97 5.94L42.97 5.94Q43.01 6.01 42.94 6.10L42.94 6.10L40.88 9.30L40.88 9.35L43.15 12.80L43.15 12.80Q43.20 12.89 43.16 12.96L43.16 12.96L43.16 12.96Q43.12 13.02 43.01 13.02L43.01 13.02L42.35 13.02L42.35 13.02Q42.08 13.02 41.96 12.82L41.96 12.82L39.80 9.49L39.80 9.49Q39.72 9.35 39.80 9.20L39.80 9.20L41.79 6.06L41.79 6.06Q41.87 5.88 42.13 5.88ZM38.91 13.02L38.91 13.02L38.28 13.02L38.28 13.02Q38.08 13.02 38.08 12.82L38.08 12.82L38.08 3.37L38.08 3.37Q38.08 3.18 38.28 3.18L38.28 3.18L38.91 3.18L38.91 3.18Q39.10 3.18 39.10 3.37L39.10 3.37L39.10 12.82L39.10 12.82Q39.10 13.02 38.91 13.02ZM48.80 13.02L48.80 13.02L48.17 13.02L48.17 13.02Q47.98 13.02 47.98 12.82L47.98 12.82L47.98 4.21L47.98 4.21Q47.98 4.02 48.17 4.02L48.17 4.02L48.80 4.02L48.80 4.02Q49.00 4.02 49.00 4.21L49.00 4.21L49.00 7.90L49.00 7.90Q49.00 8.02 49.14 8.02L49.14 8.02L52.61 8.02L52.61 8.02Q52.75 8.02 52.75 7.90L52.75 7.90L52.75 4.21L52.75 4.21Q52.75 4.02 52.95 4.02L52.95 4.02L53.58 4.02L53.58 4.02Q53.77 4.02 53.77 4.21L53.77 4.21L53.77 12.82L53.77 12.82Q53.77 13.02 53.58 13.02L53.58 13.02L52.95 13.02L52.95 13.02Q52.75 13.02 52.75 12.82L52.75 12.82L52.75 9.04L52.75 9.04Q52.75 8.92 52.61 8.92L52.61 8.92L49.14 8.92L49.14 8.92Q49.00 8.92 49.00 9.04L49.00 9.04L49.00 12.82L49.00 12.82Q49.00 13.02 48.80 13.02ZM58.51 13.02L58.51 13.02L57.78 13.02L57.78 13.02Q56.81 13.02 56.26 12.47L56.26 12.47L56.26 12.47Q55.71 11.93 55.71 10.95L55.71 10.95L55.71 7.95L55.71 7.95Q55.71 6.97 56.26 6.43L56.26 6.43L56.26 6.43Q56.81 5.88 57.78 5.88L57.78 5.88L60.82 5.88L60.82 5.88Q61.01 5.88 61.01 6.08L61.01 6.08L61.01 12.82L61.01 12.82Q61.01 13.02 60.82 13.02L60.82 13.02L60.19 13.02L60.19 13.02Q59.99 13.02 59.99 12.82L59.99 12.82L59.99 12.28L59.93 12.28L59.93 12.28Q59.58 13.02 58.51 13.02ZM59.99 10.84L59.99 10.84L59.99 6.90L59.99 6.90Q59.99 6.78 59.85 6.78L59.85 6.78L57.89 6.78L57.89 6.78Q56.73 6.78 56.73 7.99L56.73 7.99L56.73 10.91L56.73 10.91Q56.73 12.12 57.89 12.12L57.89 12.12L58.69 12.12L58.69 12.12Q59.32 12.12 59.65 11.79L59.65 11.79L59.65 11.79Q59.99 11.45 59.99 10.84ZM67.10 12.32L67.10 12.32L67.10 12.84L67.10 12.84Q67.10 13.02 66.91 13.02L66.91 13.02L64.88 13.02L64.88 13.02Q63.91 13.02 63.36 12.47L63.36 12.47L63.36 12.47Q62.80 11.93 62.80 10.95L62.80 10.95L62.80 7.95L62.80 7.95Q62.80 6.97 63.36 6.43L63.36 6.43L63.36 6.43Q63.91 5.88 64.88 5.88L64.88 5.88L66.91 5.88L66.91 5.88Q67.10 5.88 67.10 6.08L67.10 6.08L67.10 6.59L67.10 6.59Q67.10 6.78 66.91 6.78L66.91 6.78L64.99 6.78L64.99 6.78Q63.83 6.78 63.83 7.99L63.83 7.99L63.83 10.91L63.83 10.91Q63.83 12.12 64.99 12.12L64.99 12.12L66.91 12.12L66.91 12.12Q67.10 12.12 67.10 12.32ZM72.58 5.88L72.58 5.88L73.28 5.88L73.28 5.88Q73.39 5.88 73.42 5.94L73.42 5.94L73.42 5.94Q73.46 6.01 73.39 6.10L73.39 6.10L71.33 9.30L71.33 9.35L73.60 12.80L73.60 12.80Q73.65 12.89 73.61 12.96L73.61 12.96L73.61 12.96Q73.57 13.02 73.46 13.02L73.46 13.02L72.80 13.02L72.80 13.02Q72.53 13.02 72.41 12.82L72.41 12.82L70.25 9.49L70.25 9.49Q70.17 9.35 70.25 9.20L70.25 9.20L72.24 6.06L72.24 6.06Q72.32 5.88 72.58 5.88ZM69.36 13.02L69.36 13.02L68.73 13.02L68.73 13.02Q68.53 13.02 68.53 12.82L68.53 12.82L68.53 3.37L68.53 3.37Q68.53 3.18 68.73 3.18L68.73 3.18L69.36 3.18L69.36 3.18Q69.55 3.18 69.55 3.37L69.55 3.37L69.55 12.82L69.55 12.82Q69.55 13.02 69.36 13.02Z"></path></g><defs data-v-fde0c5aa=""><linearGradient data-v-fde0c5aa="" gradientTransform="rotate(25)" id="3460c074-2eee-4da2-97ae-ccb5d9836e3c" x1="0%" y1="0%" x2="100%" y2="0%"><stop data-v-fde0c5aa="" offset="0%" stop-color="#000A68" stop-opacity="1"></stop><stop data-v-fde0c5aa="" offset="100%" stop-color="#00C4EE" stop-opacity="1"></stop></linearGradient></defs><g data-v-fde0c5aa="" id="beb4be7b-f4ec-4701-a805-0e55f10d6009" stroke="none" fill="url(#3460c074-2eee-4da2-97ae-ccb5d9836e3c)" transform="matrix(0.3471377233776648,0,0,0.3471377233776648,39.99986443243244,132.64311023711088)"><path d="M92.247 100l-84.921-.052c-5.208 0-8.366-4.128-7.012-9.154l1.94-7.109c1.354-5.052 6.738-9.153 11.947-9.153h70.853c5.215 0 10.631 4.102 12.057 9.114l2.051 7.253c1.419 5.012-1.7 9.114-6.915 9.101zM93.335 0H6.18a4.125 4.125 0 0 0-4.128 4.127v60.704a4.124 4.124 0 0 0 4.127 4.127h87.155a4.124 4.124 0 0 0 4.127-4.127V4.127A4.123 4.123 0 0 0 93.335 0zm-4.121 60.703H10.301V8.255h78.913v52.448z"></path></g><!----></svg>